<svg width="700" height="400" xmlns="http://www.w3.org/2000/svg" aria-label="Apple and Banana Sales Bar Chart"><style>.bar1{fill:#4682b4}.bar2{fill:orange}.axis{stroke:#333;stroke-width:1}.label,.tick{fill:#333}.tick{font-size:12px}.label{font-size:14px;text-anchor:middle}</style><text x="350" y="20" style="font-size:16px;font-weight:700;fill:#000;text-anchor:middle">Apple and Banana Sales (Units) Monday–Friday</text><path class="bar1" d="M580 30h15v15h-15z"/><text class="tick" x="600" y="42">Apple</text><path class="bar2" d="M580 50h15v15h-15z"/><text class="tick" x="600" y="62">Banana</text><path class="axis" d="M60 40v300m0 0h480m-480 0h5"/><text class="tick" x="55" y="345">0</text><path class="axis" d="M60 271.82h5"/><text class="tick" x="55" y="276">50</text><path class="axis" d="M60 203.64h5"/><text class="tick" x="55" y="208">100</text><path class="axis" d="M60 135.45h5"/><text class="tick" x="55" y="140">150</text><path class="axis" d="M60 67.27h5"/><text class="tick" x="55" y="72">200</text><path class="axis" d="M60 40h5"/><text class="tick" x="55" y="45">220</text><path class="bar1" d="M65 176.36h20V340H65z"/><path class="bar2" d="M95 67.27h20V340H95z"/><path class="bar1" d="M170 155.91h20V340h-20z"/><path class="bar2" d="M200 80.91h20V340h-20z"/><path class="bar1" d="M275 135.45h20V340h-20z"/><path class="bar2" d="M305 53.64h20V340h-20z"/><path class="bar1" d="M380 149.09h20V340h-20z"/><path class="bar2" d="M410 60.45h20V340h-20z"/><path class="bar1" d="M485 121.82h20V340h-20z"/><path class="bar2" d="M515 40h20v300h-20z"/><text class="label" x="90" y="360">Mon</text><text class="label" x="195" y="360">Tue</text><text class="label" x="300" y="360">Wed</text><text class="label" x="405" y="360">Thu</text><text class="label" x="510" y="360">Fri</text><text class="label" x="350" y="380">Day of Week</text><text class="label" transform="rotate(-90 20 190)" x="20" y="190">Units Sold</text></svg>
