<svg aria-hidden="false" aria-label="Interactive chart" viewBox="0 0 650 400" height="400" width="650" xmlns="http://www.w3.org/2000/svg" style="font-family: Roboto; font-size: 12px;" class="highcharts-root" version="1.1" xmlns:xlink="http://www.w3.org/1999/xlink"><defs aria-hidden="true"><clipPath id="highcharts-x5terur-263-"><rect fill="none" height="279" width="596" y="0" x="0"/></clipPath><clipPath id="highcharts-x5terur-269-"><rect fill="none" height="279" width="596" y="0" x="0"/></clipPath></defs><rect aria-hidden="true" ry="0" rx="0" height="400" width="650" y="0" x="0" class="highcharts-background" fill="#ffffff"/><rect aria-hidden="true" height="279" width="596" y="47" x="44" class="highcharts-plot-background" fill="none"/><g aria-hidden="true" data-z-index="0" class="highcharts-pane-group"/><g aria-hidden="true" data-z-index="1" class="highcharts-grid highcharts-xaxis-grid"><path opacity="1" d="M 162.5 47 L 162.5 326" class="highcharts-grid-line" data-z-index="1" stroke-dasharray="none" fill="none"/><path opacity="1" d="M 281.5 47 L 281.5 326" class="highcharts-grid-line" data-z-index="1" stroke-dasharray="none" fill="none"/><path opacity="1" d="M 401.5 47 L 401.5 326" class="highcharts-grid-line" data-z-index="1" stroke-dasharray="none" fill="none"/><path opacity="1" d="M 520.5 47 L 520.5 326" class="highcharts-grid-line" data-z-index="1" stroke-dasharray="none" fill="none"/><path opacity="1" d="M 639.5 47 L 639.5 326" class="highcharts-grid-line" data-z-index="1" stroke-dasharray="none" fill="none"/><path opacity="1" d="M 43.5 47 L 43.5 326" class="highcharts-grid-line" data-z-index="1" stroke-dasharray="none" fill="none"/></g><g aria-hidden="true" data-z-index="1" class="highcharts-grid highcharts-yaxis-grid"><path opacity="1" d="M 44 326.5 L 640 326.5" class="highcharts-grid-line" data-z-index="1" stroke-dasharray="none" stroke-width="1" stroke="#e6e6e6" fill="none"/><path opacity="1" d="M 44 270.5 L 640 270.5" class="highcharts-grid-line" data-z-index="1" stroke-dasharray="none" stroke-width="1" stroke="#e6e6e6" fill="none"/><path opacity="1" d="M 44 214.5 L 640 214.5" class="highcharts-grid-line" data-z-index="1" stroke-dasharray="none" stroke-width="1" stroke="#e6e6e6" fill="none"/><path opacity="1" d="M 44 159.5 L 640 159.5" class="highcharts-grid-line" data-z-index="1" stroke-dasharray="none" stroke-width="1" stroke="#e6e6e6" fill="none"/><path opacity="1" d="M 44 103.5 L 640 103.5" class="highcharts-grid-line" data-z-index="1" stroke-dasharray="none" stroke-width="1" stroke="#e6e6e6" fill="none"/><path opacity="1" d="M 44 46.5 L 640 46.5" class="highcharts-grid-line" data-z-index="1" stroke-dasharray="none" stroke-width="1" stroke="#e6e6e6" fill="none"/></g><rect aria-hidden="true" height="279" width="596" y="47" x="44" data-z-index="1" class="highcharts-plot-border" fill="none"/><g aria-hidden="true" data-z-index="2" class="highcharts-axis highcharts-xaxis"><path d="M 44 326.5 L 640 326.5" data-z-index="7" stroke-width="1" stroke="#ccd6eb" class="highcharts-axis-line" fill="none"/></g><g aria-hidden="true" data-z-index="2" class="highcharts-axis highcharts-yaxis"><path d="M 44 47 L 44 326" data-z-index="7" class="highcharts-axis-line" fill="none"/></g><g aria-hidden="false" data-z-index="3" class="highcharts-series-group"><g aria-hidden="true" clip-path="url(#highcharts-x5terur-269-)" transform="translate(44,47) scale(1 1)" opacity="1" data-z-index="0.1" class="highcharts-series highcharts-series-0 highcharts-spline-series"><path stroke-linecap="round" stroke-linejoin="round" stroke-width="2" stroke="#6f58e9" data-z-index="1" class="highcharts-graph" d="M 59.6 234.36 C 59.6 234.36 131.12000000000003 214.272 178.8 200.88 C 226.48000000000002 187.48799999999997 250.32 167.4 298 167.4 C 345.68 167.4 369.52 189.72 417.2 189.72 C 464.87999999999994 189.72 536.4 145.08 536.4 145.08" fill="none"/></g><g aria-label="Apple, line 1 of 2 with 5 data points." style="outline: none;" tabindex="-1" role="region" aria-hidden="false" clip-path="none" transform="translate(44,47) scale(1 1)" opacity="1" data-z-index="0.1" class="highcharts-markers highcharts-series-0 highcharts-spline-series"><path aria-label="Monday, 120. Apple." role="img" style="outline: none;" tabindex="-1" class="highcharts-point" opacity="1" d="M 59 238 A 4 4 0 1 1 59.00399999933334 237.99999800000018 Z" fill="#6f58e9"/><path aria-label="Tuesday, 135. Apple." role="img" style="outline: none;" tabindex="-1" class="highcharts-point" opacity="1" d="M 178 205 A 4 4 0 1 1 178.00399999933333 204.99999800000018 Z" fill="#6f58e9"/><path aria-label="Wednesday, 150. Apple." role="img" style="outline: none;" tabindex="-1" class="highcharts-point" opacity="1" d="M 298 171 A 4 4 0 1 1 298.00399999933336 170.99999800000018 Z" fill="#6f58e9"/><path aria-label="Thursday, 140. Apple." role="img" style="outline: none;" tabindex="-1" class="highcharts-point" opacity="1" d="M 417 194 A 4 4 0 1 1 417.00399999933336 193.99999800000018 Z" fill="#6f58e9"/><path aria-label="Friday, 160. Apple." role="img" style="outline: none;" tabindex="-1" class="highcharts-point" opacity="1" d="M 536 149 A 4 4 0 1 1 536.0039999993334 148.99999800000018 Z" fill="#6f58e9"/></g><g aria-hidden="true" clip-path="url(#highcharts-x5terur-269-)" transform="translate(44,47) scale(1 1)" opacity="1" data-z-index="0.1" class="highcharts-series highcharts-series-1 highcharts-spline-series"><path stroke-linecap="round" stroke-linejoin="round" stroke-width="2" stroke="#94d13d" data-z-index="1" class="highcharts-graph" d="M 59.6 55.80000000000001 C 59.6 55.80000000000001 131.12000000000003 78.12 178.8 78.12 C 226.48000000000002 78.12 250.32 33.47999999999999 298 33.47999999999999 C 345.68 33.47999999999999 369.52 44.639999999999986 417.2 44.639999999999986 C 464.87999999999994 44.639999999999986 536.4 11.160000000000025 536.4 11.160000000000025" fill="none"/></g><g aria-label="Banana, line 2 of 2 with 5 data points." style="outline: none;" tabindex="-1" role="region" aria-hidden="false" clip-path="none" transform="translate(44,47) scale(1 1)" opacity="1" data-z-index="0.1" class="highcharts-markers highcharts-series-1 highcharts-spline-series"><path aria-label="Monday, 200. Banana." role="img" style="outline: none;" tabindex="-1" class="highcharts-point" opacity="1" d="M 59 52 L 63 56 L 59 60 L 55 56 Z" fill="#94d13d"/><path aria-label="Tuesday, 190. Banana." role="img" style="outline: none;" tabindex="-1" class="highcharts-point" opacity="1" d="M 178 74 L 182 78 L 178 82 L 174 78 Z" fill="#94d13d"/><path aria-label="Wednesday, 210. Banana." role="img" style="outline: none;" tabindex="-1" class="highcharts-point" opacity="1" d="M 298 29 L 302 33 L 298 37 L 294 33 Z" fill="#94d13d"/><path aria-label="Thursday, 205. Banana." role="img" style="outline: none;" tabindex="-1" class="highcharts-point" opacity="1" d="M 417 41 L 421 45 L 417 49 L 413 45 Z" fill="#94d13d"/><path aria-label="Friday, 220. Banana." role="img" style="outline: none;" tabindex="-1" class="highcharts-point" opacity="1" d="M 536 7 L 540 11 L 536 15 L 532 11 Z" fill="#94d13d"/></g></g><text aria-hidden="true" y="24" style="color: rgb(51, 51, 51); font-size: 18px; fill: rgb(51, 51, 51);" data-z-index="4" class="highcharts-title" text-anchor="middle" x="325">Fruit Sales</text><text aria-hidden="true" y="46" style="color: rgb(102, 102, 102); fill: rgb(102, 102, 102);" data-z-index="4" class="highcharts-subtitle" text-anchor="middle" x="325"/><text aria-hidden="true" y="397" style="color: rgb(102, 102, 102); fill: rgb(102, 102, 102);" data-z-index="4" class="highcharts-caption" text-anchor="start" x="10"/><g aria-hidden="true" transform="translate(249,359)" data-z-index="7" class="highcharts-legend highcharts-no-tooltip"><rect height="26" width="152" y="0" x="0" ry="0" rx="0" class="highcharts-legend-box" fill="none"/><g data-z-index="1"><g><g transform="translate(8,3)" data-z-index="1" class="highcharts-legend-item highcharts-spline-series highcharts-color-undefined highcharts-series-0"><path stroke-width="2" stroke="#6f58e9" class="highcharts-graph" d="M 0 11 L 16 11" fill="none"/><path opacity="1" class="highcharts-point" d="M 8 15 A 4 4 0 1 1 8.003999999333336 14.999998000000167 Z" fill="#6f58e9"/><text y="15" data-z-index="2" text-anchor="start" style="color: rgb(51, 51, 51); cursor: pointer; font-size: 12px; font-weight: bold; fill: rgb(51, 51, 51);" x="21">Apple</text></g><g transform="translate(81.25,3)" data-z-index="1" class="highcharts-legend-item highcharts-spline-series highcharts-color-undefined highcharts-series-1"><path stroke-width="2" stroke="#94d13d" class="highcharts-graph" d="M 0 11 L 16 11" fill="none"/><path opacity="1" class="highcharts-point" d="M 8 7 L 12 11 L 8 15 L 4 11 Z" fill="#94d13d"/><text data-z-index="2" text-anchor="start" style="color: rgb(51, 51, 51); cursor: pointer; font-size: 12px; font-weight: bold; fill: rgb(51, 51, 51);" y="15" x="21">Banana</text></g></g></g></g><g aria-hidden="true" data-z-index="7" class="highcharts-axis-labels highcharts-xaxis-labels"><text opacity="1" y="345" transform="translate(0,0)" text-anchor="middle" style="color: rgb(102, 102, 102); cursor: default; font-size: 11px; fill: rgb(102, 102, 102);" x="103.6">Monday</text><text opacity="1" y="345" transform="translate(0,0)" text-anchor="middle" style="color: rgb(102, 102, 102); cursor: default; font-size: 11px; fill: rgb(102, 102, 102);" x="222.79999999999998">Tuesday</text><text opacity="1" y="345" transform="translate(0,0)" text-anchor="middle" style="color: rgb(102, 102, 102); cursor: default; font-size: 11px; fill: rgb(102, 102, 102);" x="342">Wednesday</text><text opacity="1" y="345" transform="translate(0,0)" text-anchor="middle" style="color: rgb(102, 102, 102); cursor: default; font-size: 11px; fill: rgb(102, 102, 102);" x="461.19999999999993">Thursday</text><text opacity="1" y="345" transform="translate(0,0)" text-anchor="middle" style="color: rgb(102, 102, 102); cursor: default; font-size: 11px; fill: rgb(102, 102, 102);" x="580.4">Friday</text></g><g aria-hidden="true" data-z-index="7" class="highcharts-axis-labels highcharts-yaxis-labels"><text opacity="1" y="330" transform="translate(0,0)" text-anchor="end" style="color: rgb(102, 102, 102); cursor: default; font-size: 11px; fill: rgb(102, 102, 102);" x="29">100</text><text opacity="1" y="275" transform="translate(0,0)" text-anchor="end" style="color: rgb(102, 102, 102); cursor: default; font-size: 11px; fill: rgb(102, 102, 102);" x="29">125</text><text opacity="1" y="219" transform="translate(0,0)" text-anchor="end" style="color: rgb(102, 102, 102); cursor: default; font-size: 11px; fill: rgb(102, 102, 102);" x="29">150</text><text opacity="1" y="163" transform="translate(0,0)" text-anchor="end" style="color: rgb(102, 102, 102); cursor: default; font-size: 11px; fill: rgb(102, 102, 102);" x="29">175</text><text opacity="1" y="107" transform="translate(0,0)" text-anchor="end" style="color: rgb(102, 102, 102); cursor: default; font-size: 11px; fill: rgb(102, 102, 102);" x="29">200</text><text opacity="1" y="51" transform="translate(0,0)" text-anchor="end" style="color: rgb(102, 102, 102); cursor: default; font-size: 11px; fill: rgb(102, 102, 102);" x="29">225</text></g></svg>