<svg aria-hidden="false" aria-label="Interactive chart" viewBox="0 0 650 400" height="400" width="650" xmlns="http://www.w3.org/2000/svg" style="font-family:Roboto;font-size:12px" class="highcharts-root"><rect aria-hidden="true" ry="0" rx="0" height="400" width="650" class="highcharts-background" fill="#fff"/><path aria-hidden="true" class="highcharts-plot-background" fill="none" d="M10 47h630v300H10z"/><g aria-hidden="true" data-z-index="0" class="highcharts-pane-group"/><path aria-hidden="true" data-z-index="1" class="highcharts-plot-border" fill="none" d="M10 47h630v300H10z"/><g aria-hidden="false" data-z-index="3" class="highcharts-series-group"><g aria-hidden="false" data-z-index=".1" class="highcharts-series highcharts-series-0 highcharts-pie-series" stroke-linejoin="round" stroke="#fff"><path aria-label="Apples, 120." style="outline:0" tabindex="-1" class="highcharts-point highcharts-color-0" d="M314.977 36a114 114 0 0 1 112.53 95.613L315 150Z" fill="#94d13d" transform="translate(10 47)"/><path aria-label="Bananas, 200." style="outline:0" tabindex="-1" class="highcharts-point highcharts-color-1" d="M427.526 131.725A114 114 0 0 1 249.208 243.1L315 150Z" fill="#6f58e9" transform="translate(10 47)"/><path aria-label="Oranges, 90." style="outline:0" tabindex="-1" class="highcharts-point highcharts-color-2" d="M249.115 243.033a114 114 0 0 1-47.53-104.574L315 150Z" fill="#2d99fe" transform="translate(10 47)"/><path aria-label="Grapes, 75." style="outline:0" tabindex="-1" class="highcharts-point highcharts-color-3" d="M201.597 138.346a114 114 0 0 1 50.13-83.175L315 150Z" fill="#2ddac1" transform="translate(10 47)"/><path aria-label="Strawberries, 50." style="outline:0" tabindex="-1" class="highcharts-point highcharts-color-4" d="M251.822 55.107A114 114 0 0 1 314.842 36L315 150Z" fill="#1ea9f3" transform="translate(10 47)"/></g><g aria-hidden="true" data-z-index=".1" class="highcharts-markers highcharts-series-0 highcharts-pie-series" transform="translate(10 47)"/></g><text aria-hidden="true" y="24" style="color:#333;font-size:18px;fill:#333" data-z-index="4" class="highcharts-title" text-anchor="middle" x="325">Fruit Sales</text><g aria-hidden="true" data-z-index="6" class="highcharts-data-labels highcharts-series-0 highcharts-pie-series"><path d="M423.28 87.296c-5 0-16.66 13.713-20.547 18.284l-3.887 4.57" stroke="#94d13d" class="highcharts-data-label-connector highcharts-color-0" fill="none"/><path d="M406.229 319.169c-5 0-14.529-15.271-17.705-20.362l-3.176-5.09" stroke="#6f58e9" class="highcharts-data-label-connector highcharts-color-1" fill="none"/><path d="M188.854 256.47c5 0 21.393-7.434 26.857-9.912l5.465-2.478" stroke="#2d99fe" class="highcharts-data-label-connector highcharts-color-2" fill="none"/><path d="M196.725 122.573c5 0 20.41 9.303 25.546 12.404l5.137 3.102" stroke="#2ddac1" class="highcharts-data-label-connector highcharts-color-3" fill="none"/><path d="M278.325 59.162c5 0 10.21 17.23 11.946 22.973l1.737 5.743" stroke="#1ea9f3" class="highcharts-data-label-connector highcharts-color-4" fill="none"/><g style="cursor:pointer" data-z-index="1" class="highcharts-label highcharts-data-label highcharts-data-label-color-0"><text style="color:#000;font-size:11px;font-weight:700;fill:#000" y="16" data-z-index="1" x="5" transform="translate(428 77)"><tspan style="font-weight:700">Apples</tspan>: 22.4 %</text></g><g style="cursor:pointer" data-z-index="1" class="highcharts-label highcharts-data-label highcharts-data-label-color-1"><text style="color:#000;font-size:11px;font-weight:700;fill:#000" y="16" data-z-index="1" x="5" transform="translate(411 309)"><tspan style="font-weight:700">Bananas</tspan>: 37.4 %</text></g><g style="cursor:pointer" data-z-index="1" class="highcharts-label highcharts-data-label highcharts-data-label-color-2"><text style="color:#000;font-size:11px;font-weight:700;fill:#000" y="16" data-z-index="1" x="5" transform="translate(91 246)"><tspan style="font-weight:700">Oranges</tspan>: 16.8 %</text></g><g style="cursor:pointer" data-z-index="1" class="highcharts-label highcharts-data-label highcharts-data-label-color-3"><text style="color:#000;font-size:11px;font-weight:700;fill:#000" y="16" data-z-index="1" x="5" transform="translate(105 113)"><tspan style="font-weight:700">Grapes</tspan>: 14.0 %</text></g><g style="cursor:pointer" data-z-index="1" class="highcharts-label highcharts-data-label highcharts-data-label-color-4"><text style="color:#000;font-size:11px;font-weight:700;fill:#000" y="16" data-z-index="1" x="5" transform="translate(164 49)"><tspan style="font-weight:700">Strawberries</tspan>: 9.3 %</text></g></g><g aria-hidden="true" transform="translate(102 359)" data-z-index="7" class="highcharts-legend highcharts-no-tooltip"><rect height="26" width="446" ry="0" rx="0" class="highcharts-legend-box" fill="none"/><g data-z-index="1"><g transform="translate(8 3)" data-z-index="1" class="highcharts-legend-item highcharts-pie-series highcharts-color-0"><text y="15" data-z-index="2" style="color:#333;cursor:pointer;font-size:12px;font-weight:700;fill:#333" x="21">Apples</text><rect data-z-index="3" class="highcharts-point" ry="6" rx="6" fill="#94d13d" height="12" width="12" y="4" x="2"/></g><g transform="translate(87.783 3)" data-z-index="1" class="highcharts-legend-item highcharts-pie-series highcharts-color-1"><text data-z-index="2" style="color:#333;cursor:pointer;font-size:12px;font-weight:700;fill:#333" y="15" x="21">Bananas</text><rect data-z-index="3" class="highcharts-point" ry="6" rx="6" fill="#6f58e9" height="12" width="12" y="4" x="2"/></g><g transform="translate(177.667 3)" data-z-index="1" class="highcharts-legend-item highcharts-pie-series highcharts-color-2"><text data-z-index="2" style="color:#333;cursor:pointer;font-size:12px;font-weight:700;fill:#333" y="15" x="21">Oranges</text><rect data-z-index="3" class="highcharts-point" ry="6" rx="6" fill="#2d99fe" height="12" width="12" y="4" x="2"/></g><g transform="translate(265.55 3)" data-z-index="1" class="highcharts-legend-item highcharts-pie-series highcharts-color-3"><text data-z-index="2" style="color:#333;cursor:pointer;font-size:12px;font-weight:700;fill:#333" y="15" x="21">Grapes</text><rect data-z-index="3" class="highcharts-point" ry="6" rx="6" fill="#2ddac1" height="12" width="12" y="4" x="2"/></g><g transform="translate(346.383 3)" data-z-index="1" class="highcharts-legend-item highcharts-pie-series highcharts-color-4"><text data-z-index="2" style="color:#333;cursor:pointer;font-size:12px;font-weight:700;fill:#333" y="15" x="21">Strawberries</text><rect data-z-index="3" class="highcharts-point" ry="6" rx="6" fill="#1ea9f3" height="12" width="12" y="4" x="2"/></g></g></g></svg>